HIERARCHY
ROOT Hips
{
	OFFSET	0.00	0.00	0.00
	CHANNELS 6 Xposition Yposition Zposition Zrotation Xrotation Yrotation
	JOINT Spine
	{
		OFFSET	 0.000000	 0.052914	 0.009825
		CHANNELS 3 Zrotation Xrotation Yrotation
		JOINT Chest
		{
			OFFSET	 0.000000	 0.113988	 0.014169
			CHANNELS 3 Zrotation Xrotation Yrotation
			JOINT UpperChest
			{
				OFFSET	-0.000000	 0.124103	-0.013643
				CHANNELS 3 Zrotation Xrotation Yrotation
				JOINT Neck
				{
					OFFSET	 0.000000	 0.114615	-0.033396
					CHANNELS 3 Zrotation Xrotation Yrotation
					JOINT Head
					{
						OFFSET	 0.000000	 0.072209	 0.009307
						CHANNELS 3 Zrotation Xrotation Yrotation
						JOINT LeftEye
						{
							OFFSET	 0.020838	 0.062151	 0.028360
							CHANNELS 3 Zrotation Xrotation Yrotation
							End Site
							{
								OFFSET	 0.020838	 0.062151	 0.028360
							}
						}
						JOINT RightEye
						{
							OFFSET	-0.020838	 0.062151	 0.028360
							CHANNELS 3 Zrotation Xrotation Yrotation
							End Site
							{
								OFFSET	-0.020838	 0.062151	 0.028360
							}
						}
					}
				}
				JOINT LeftShoulder
				{
					OFFSET	 0.022386	 0.087264	-0.027443
					CHANNELS 3 Zrotation Xrotation Yrotation
					JOINT LeftUpperArm
					{
						OFFSET	 0.086295	-0.014869	 0.005364
						CHANNELS 3 Zrotation Xrotation Yrotation
						JOINT LeftLowerArm
						{
							OFFSET	 0.219007	-0.010198	 0.001837
							CHANNELS 3 Zrotation Xrotation Yrotation
							JOINT LeftHand
							{
								OFFSET	 0.213574	-0.000466	 0.017630
								CHANNELS 3 Zrotation Xrotation Yrotation
								JOINT LeftIndexProximal
								{
									OFFSET	 0.063906	 0.005562	 0.021442
									CHANNELS 3 Zrotation Xrotation Yrotation
									JOINT LeftIndexIntermediate
									{
										OFFSET	 0.032821	-0.000134	 0.005149
										CHANNELS 3 Zrotation Xrotation Yrotation
										JOINT LeftIndexDistal
										{
											OFFSET	 0.020314	-0.000674	 0.002301
											CHANNELS 3 Zrotation Xrotation Yrotation
											End Site
											{
												OFFSET	 0.020314	-0.000674	 0.002301
											}
										}
									}
								}
								JOINT LeftLittleProximal
								{
									OFFSET	 0.063261	 0.003125	-0.026794
									CHANNELS 3 Zrotation Xrotation Yrotation
									JOINT LeftLittleIntermediate
									{
										OFFSET	 0.031398	-0.000273	 0.000022
										CHANNELS 3 Zrotation Xrotation Yrotation
										JOINT LeftLittleDistal
										{
											OFFSET	 0.018059	 0.000679	-0.000943
											CHANNELS 3 Zrotation Xrotation Yrotation
											End Site
											{
												OFFSET	 0.018059	 0.000679	-0.000943
											}
										}
									}
								}
								JOINT LeftMiddleProximal
								{
									OFFSET	 0.066112	 0.008373	 0.004780
									CHANNELS 3 Zrotation Xrotation Yrotation
									JOINT LeftMiddleIntermediate
									{
										OFFSET	 0.036901	-0.001349	 0.002438
										CHANNELS 3 Zrotation Xrotation Yrotation
										JOINT LeftMiddleDistal
										{
											OFFSET	 0.022683	-0.002405	 0.000937
											CHANNELS 3 Zrotation Xrotation Yrotation
											End Site
											{
												OFFSET	 0.022683	-0.002405	 0.000937
											}
										}
									}
								}
								JOINT LeftRingProximal
								{
									OFFSET	 0.066681	 0.008306	-0.010961
									CHANNELS 3 Zrotation Xrotation Yrotation
									JOINT LeftRingIntermediate
									{
										OFFSET	 0.034323	-0.000538	 0.000172
										CHANNELS 3 Zrotation Xrotation Yrotation
										JOINT LeftRingDistal
										{
											OFFSET	 0.019796	 0.000700	 0.000249
											CHANNELS 3 Zrotation Xrotation Yrotation
											End Site
											{
												OFFSET	 0.019796	 0.000700	 0.000249
											}
										}
									}
								}
								JOINT LeftThumbProximal
								{
									OFFSET	 0.002032	-0.006912	 0.017734
									CHANNELS 3 Zrotation Xrotation Yrotation
									JOINT LeftThumbIntermediate
									{
										OFFSET	 0.032287	-0.002701	 0.033401
										CHANNELS 3 Zrotation Xrotation Yrotation
										JOINT LeftThumbDistal
										{
											OFFSET	 0.021324	-0.001512	 0.019035
											CHANNELS 3 Zrotation Xrotation Yrotation
											End Site
											{
												OFFSET	 0.021324	-0.001512	 0.019035
											}
										}
									}
								}
							}
						}
					}
				}
				JOINT RightShoulder
				{
					OFFSET	-0.022386	 0.087264	-0.027443
					CHANNELS 3 Zrotation Xrotation Yrotation
					JOINT RightUpperArm
					{
						OFFSET	-0.086295	-0.014869	 0.005364
						CHANNELS 3 Zrotation Xrotation Yrotation
						JOINT RightLowerArm
						{
							OFFSET	-0.219007	-0.010197	 0.001837
							CHANNELS 3 Zrotation Xrotation Yrotation
							JOINT RightHand
							{
								OFFSET	-0.213574	-0.000465	 0.017629
								CHANNELS 3 Zrotation Xrotation Yrotation
								JOINT RightIndexProximal
								{
									OFFSET	-0.063906	 0.005562	 0.021442
									CHANNELS 3 Zrotation Xrotation Yrotation
									JOINT RightIndexIntermediate
									{
										OFFSET	-0.032821	-0.000134	 0.005149
										CHANNELS 3 Zrotation Xrotation Yrotation
										JOINT RightIndexDistal
										{
											OFFSET	-0.020314	-0.000674	 0.002301
											CHANNELS 3 Zrotation Xrotation Yrotation
											End Site
											{
												OFFSET	-0.020314	-0.000674	 0.002301
											}
										}
									}
								}
								JOINT RightLittleProximal
								{
									OFFSET	-0.063261	 0.003125	-0.026794
									CHANNELS 3 Zrotation Xrotation Yrotation
									JOINT RightLittleIntermediate
									{
										OFFSET	-0.031398	-0.000273	 0.000023
										CHANNELS 3 Zrotation Xrotation Yrotation
										JOINT RightLittleDistal
										{
											OFFSET	-0.018059	 0.000679	-0.000943
											CHANNELS 3 Zrotation Xrotation Yrotation
											End Site
											{
												OFFSET	-0.018059	 0.000679	-0.000943
											}
										}
									}
								}
								JOINT RightMiddleProximal
								{
									OFFSET	-0.066112	 0.008373	 0.004780
									CHANNELS 3 Zrotation Xrotation Yrotation
									JOINT RightMiddleIntermediate
									{
										OFFSET	-0.036901	-0.001349	 0.002438
										CHANNELS 3 Zrotation Xrotation Yrotation
										JOINT RightMiddleDistal
										{
											OFFSET	-0.022683	-0.002405	 0.000937
											CHANNELS 3 Zrotation Xrotation Yrotation
											End Site
											{
												OFFSET	-0.022683	-0.002405	 0.000937
											}
										}
									}
								}
								JOINT RightRingProximal
								{
									OFFSET	-0.066681	 0.008306	-0.010961
									CHANNELS 3 Zrotation Xrotation Yrotation
									JOINT RightRingIntermediate
									{
										OFFSET	-0.034323	-0.000538	 0.000173
										CHANNELS 3 Zrotation Xrotation Yrotation
										JOINT RightRingDistal
										{
											OFFSET	-0.019796	 0.000700	 0.000249
											CHANNELS 3 Zrotation Xrotation Yrotation
											End Site
											{
												OFFSET	-0.019796	 0.000700	 0.000249
											}
										}
									}
								}
								JOINT RightThumbProximal
								{
									OFFSET	-0.002032	-0.006912	 0.017734
									CHANNELS 3 Zrotation Xrotation Yrotation
									JOINT RightThumbIntermediate
									{
										OFFSET	-0.032277	-0.002678	 0.033413
										CHANNELS 3 Zrotation Xrotation Yrotation
										JOINT RightThumbDistal
										{
											OFFSET	-0.021320	-0.001499	 0.019040
											CHANNELS 3 Zrotation Xrotation Yrotation
											End Site
											{
												OFFSET	-0.021320	-0.001499	 0.019040
											}
										}
									}
								}
							}
						}
					}
				}
			}
		}
	}
	JOINT LeftUpperLeg
	{
		OFFSET	 0.077122	-0.039954	-0.003501
		CHANNELS 3 Zrotation Xrotation Yrotation
		JOINT LeftLowerLeg
		{
			OFFSET	-0.020266	-0.352190	-0.006326
			CHANNELS 3 Zrotation Xrotation Yrotation
			JOINT LeftFoot
			{
				OFFSET	-0.010351	-0.414643	-0.021175
				CHANNELS 3 Zrotation Xrotation Yrotation
				JOINT LeftToes
				{
					OFFSET	 0.001466	-0.063365	 0.110598
					CHANNELS 3 Zrotation Xrotation Yrotation
					End Site
					{
						OFFSET	 0.001466	-0.063365	 0.110598
					}
				}
			}
		}
	}
	JOINT RightUpperLeg
	{
		OFFSET	-0.077122	-0.039954	-0.003501
		CHANNELS 3 Zrotation Xrotation Yrotation
		JOINT RightLowerLeg
		{
			OFFSET	 0.020267	-0.352190	-0.006325
			CHANNELS 3 Zrotation Xrotation Yrotation
			JOINT RightFoot
			{
				OFFSET	 0.010352	-0.414643	-0.021175
				CHANNELS 3 Zrotation Xrotation Yrotation
				JOINT RightToes
				{
					OFFSET	-0.001466	-0.063365	 0.110598
					CHANNELS 3 Zrotation Xrotation Yrotation
					End Site
					{
						OFFSET	-0.001466	-0.063365	 0.110598
					}
				}
			}
		}
	}
}
MOTION
Frames:    6
Frame Time: 0.03333334
-0.006421	 0.926901	 0.005736	-3.880173	-8.315313	 154.873900	-0.452569	 31.282760	 0.044061	 0.000000	 0.000000	 0.000000	 0.000000	 0.000000	 0.000000	-5.966061	 5.133022	-3.101562	-0.072243	 1.919481	 23.972060	 0.000000	 0.000000	 0.000000	 0.000000	 0.000000	 0.000000	 0.000000	 0.000000	 0.000000	-62.172530	-15.396790	 16.748150	-6.784770	 42.113520	-36.525330	-3.142673	-9.371944	-11.955010	 0.000000	 0.000000	 0.000000	 0.000000	 0.000000	 0.000000	 0.000000	 0.000000	 0.000000	 0.000000	 0.000000	 0.000000	 0.000000	 0.000000	 0.000000	 0.000000	 0.000000	 0.000000	 0.000000	 0.000000	 0.000000	 0.000000	 0.000000	 0.000000	 0.000000	 0.000000	 0.000000	 0.000000	 0.000000	 0.000000	 0.000000	 0.000000	 0.000000	 0.000000	 0.000000	 0.000000	 0.000000	 0.000000	 0.000000	 0.000000	 0.000000	 0.000000	 0.000000	 0.000000	 0.000000	 0.000000	 0.000000	 0.000000	 99.554460	-1.199339	 33.695010	 168.626300	 75.539190	-118.141800	 3.464615	 33.451730	 1.571436	 0.000000	 0.000000	 0.000000	 0.000000	 0.000000	 0.000000	 0.000000	 0.000000	 0.000000	 0.000000	 0.000000	 0.000000	 0.000000	 0.000000	 0.000000	 0.000000	 0.000000	 0.000000	 0.000000	 0.000000	 0.000000	 0.000000	 0.000000	 0.000000	 0.000000	 0.000000	 0.000000	 0.000000	 0.000000	 0.000000	 0.000000	 0.000000	 0.000000	 0.000000	 0.000000	 0.000000	 0.000000	 0.000000	 0.000000	 0.000000	 0.000000	 0.000000	 0.000000	 0.000000	 0.000000	-1.780244	-51.174050	 4.910139	 20.917230	 48.601560	-19.869250	-3.847429	-5.432453	-5.751104	 0.000000	 0.000000	 0.000000	-7.965569	-36.898260	-1.731096	-5.955855	 42.602730	 6.099785	-2.460552	-14.750520	-17.539720	 0.000000	 0.000000	 0.000000
-0.020059	 0.923294	 0.001322	-2.575759	-8.084874	 162.262300	 2.849154	 23.653800	-0.262407	 0.000000	 0.000000	 0.000000	 0.000000	 0.000000	 0.000000	-1.593925	 4.513619	-0.703252	-5.352670	 4.560139	 15.773650	 0.000000	 0.000000	 0.000000	 0.000000	 0.000000	 0.000000	 0.000000	 0.000000	 0.000000	-70.203510	-10.418500	 19.356490	-7.229440	 31.905500	-49.981310	-6.896705	 7.897079	-13.444630	 0.000000	 0.000000	 0.000000	 0.000000	 0.000000	 0.000000	 0.000000	 0.000000	 0.000000	 0.000000	 0.000000	 0.000000	 0.000000	 0.000000	 0.000000	 0.000000	 0.000000	 0.000000	 0.000000	 0.000000	 0.000000	 0.000000	 0.000000	 0.000000	 0.000000	 0.000000	 0.000000	 0.000000	 0.000000	 0.000000	 0.000000	 0.000000	 0.000000	 0.000000	 0.000000	 0.000000	 0.000000	 0.000000	 0.000000	 0.000000	 0.000000	 0.000000	 0.000000	 0.000000	 0.000000	 0.000000	 0.000000	 0.000000	 97.887630	-2.542609	 34.162200	 165.737400	 77.980500	-115.007400	-3.502376	 27.695390	-3.385469	 0.000000	 0.000000	 0.000000	 0.000000	 0.000000	 0.000000	 0.000000	 0.000000	 0.000000	 0.000000	 0.000000	 0.000000	 0.000000	 0.000000	 0.000000	 0.000000	 0.000000	 0.000000	 0.000000	 0.000000	 0.000000	 0.000000	 0.000000	 0.000000	 0.000000	 0.000000	 0.000000	 0.000000	 0.000000	 0.000000	 0.000000	 0.000000	 0.000000	 0.000000	 0.000000	 0.000000	 0.000000	 0.000000	 0.000000	 0.000000	 0.000000	 0.000000	 0.000000	 0.000000	 0.000000	-8.801380	-50.060690	 5.752992	 29.976030	 43.286480	-26.727420	-4.623841	-5.881211	-10.324730	 0.000000	 0.000000	 0.000000	-10.528810	-36.215280	-1.374161	-0.238272	 45.599560	 2.347311	-6.708851	-17.394040	-26.375020	 0.000000	 0.000000	 0.000000
-0.028573	 0.922945	-0.001729	-2.332527	-8.294152	 164.232100	 3.129355	 20.230460	-0.282992	 0.000000	 0.000000	 0.000000	 0.000000	 0.000000	 0.000000	-1.235560	 7.014158	-0.438365	-5.829934	 3.476627	 13.898320	 0.000000	 0.000000	 0.000000	 0.000000	 0.000000	 0.000000	 0.000000	 0.000000	 0.000000	-74.865950	-7.409375	 20.906320	-7.258120	 26.417310	-54.597940	-6.150297	 23.525320	-4.021164	 0.000000	 0.000000	 0.000000	 0.000000	 0.000000	 0.000000	 0.000000	 0.000000	 0.000000	 0.000000	 0.000000	 0.000000	 0.000000	 0.000000	 0.000000	 0.000000	 0.000000	 0.000000	 0.000000	 0.000000	 0.000000	 0.000000	 0.000000	 0.000000	 0.000000	 0.000000	 0.000000	 0.000000	 0.000000	 0.000000	 0.000000	 0.000000	 0.000000	 0.000000	 0.000000	 0.000000	 0.000000	 0.000000	 0.000000	 0.000000	 0.000000	 0.000000	 0.000000	 0.000000	 0.000000	 0.000000	 0.000000	 0.000000	 97.133030	-3.357063	 31.281260	 163.773500	 79.335020	-113.696700	-6.053605	 28.392370	-2.014446	 0.000000	 0.000000	 0.000000	 0.000000	 0.000000	 0.000000	 0.000000	 0.000000	 0.000000	 0.000000	 0.000000	 0.000000	 0.000000	 0.000000	 0.000000	 0.000000	 0.000000	 0.000000	 0.000000	 0.000000	 0.000000	 0.000000	 0.000000	 0.000000	 0.000000	 0.000000	 0.000000	 0.000000	 0.000000	 0.000000	 0.000000	 0.000000	 0.000000	 0.000000	 0.000000	 0.000000	 0.000000	 0.000000	 0.000000	 0.000000	 0.000000	 0.000000	 0.000000	 0.000000	 0.000000	-10.162190	-48.514080	 5.635530	 29.371580	 44.201950	-25.659110	-3.904480	-6.274110	-5.597748	 0.000000	 0.000000	 0.000000	-11.761320	-37.280920	-1.319355	 3.610638	 46.222150	-0.207151	-7.235863	-17.291000	-27.764160	 0.000000	 0.000000	 0.000000
-0.037647	 0.925181	 0.000561	-2.115053	-9.278382	 167.098500	 4.158697	 17.011050	-0.370856	 0.000000	 0.000000	 0.000000	 0.000000	 0.000000	 0.000000	-0.824812	 8.180944	-0.236101	-6.231767	 3.655539	 11.613380	 0.000000	 0.000000	 0.000000	 0.000000	 0.000000	 0.000000	 0.000000	 0.000000	 0.000000	-76.247890	-6.335197	 20.885520	-7.138689	 23.108320	-54.364690	-8.012500	 26.001620	-9.568729	 0.000000	 0.000000	 0.000000	 0.000000	 0.000000	 0.000000	 0.000000	 0.000000	 0.000000	 0.000000	 0.000000	 0.000000	 0.000000	 0.000000	 0.000000	 0.000000	 0.000000	 0.000000	 0.000000	 0.000000	 0.000000	 0.000000	 0.000000	 0.000000	 0.000000	 0.000000	 0.000000	 0.000000	 0.000000	 0.000000	 0.000000	 0.000000	 0.000000	 0.000000	 0.000000	 0.000000	 0.000000	 0.000000	 0.000000	 0.000000	 0.000000	 0.000000	 0.000000	 0.000000	 0.000000	 0.000000	 0.000000	 0.000000	 96.802320	-3.856257	 29.855280	 156.418900	 82.333020	-107.097200	-4.751823	 28.509870	-3.061203	 0.000000	 0.000000	 0.000000	 0.000000	 0.000000	 0.000000	 0.000000	 0.000000	 0.000000	 0.000000	 0.000000	 0.000000	 0.000000	 0.000000	 0.000000	 0.000000	 0.000000	 0.000000	 0.000000	 0.000000	 0.000000	 0.000000	 0.000000	 0.000000	 0.000000	 0.000000	 0.000000	 0.000000	 0.000000	 0.000000	 0.000000	 0.000000	 0.000000	 0.000000	 0.000000	 0.000000	 0.000000	 0.000000	 0.000000	 0.000000	 0.000000	 0.000000	 0.000000	 0.000000	 0.000000	-12.038040	-42.608020	 4.849944	 27.686450	 39.566150	-22.231890	-3.150208	 0.313379	-3.201097	 0.000000	 0.000000	 0.000000	-13.815190	-38.741410	-1.197786	 9.639563	 44.733550	-4.433444	-6.564644	-14.042750	-30.394430	 0.000000	 0.000000	 0.000000
-0.046827	 0.930464	 0.003336	-1.579993	-9.985084	 170.961200	 5.439435	 15.336580	-0.481990	 0.000000	 0.000000	 0.000000	 0.000000	 0.000000	 0.000000	-0.891887	 10.348290	-0.200775	-4.714312	 2.708582	 8.964921	 0.000000	 0.000000	 0.000000	 0.000000	 0.000000	 0.000000	 0.000000	 0.000000	 0.000000	-76.526240	-5.631756	 21.816060	-7.039323	 22.523960	-52.742330	-4.978870	 22.214940	-22.668590	 0.000000	 0.000000	 0.000000	 0.000000	 0.000000	 0.000000	 0.000000	 0.000000	 0.000000	 0.000000	 0.000000	 0.000000	 0.000000	 0.000000	 0.000000	 0.000000	 0.000000	 0.000000	 0.000000	 0.000000	 0.000000	 0.000000	 0.000000	 0.000000	 0.000000	 0.000000	 0.000000	 0.000000	 0.000000	 0.000000	 0.000000	 0.000000	 0.000000	 0.000000	 0.000000	 0.000000	 0.000000	 0.000000	 0.000000	 0.000000	 0.000000	 0.000000	 0.000000	 0.000000	 0.000000	 0.000000	 0.000000	 0.000000	 94.594710	-4.691043	 28.611890	 133.489400	 85.640590	-85.460300	-3.542494	 27.937270	-0.710113	 0.000000	 0.000000	 0.000000	 0.000000	 0.000000	 0.000000	 0.000000	 0.000000	 0.000000	 0.000000	 0.000000	 0.000000	 0.000000	 0.000000	 0.000000	 0.000000	 0.000000	 0.000000	 0.000000	 0.000000	 0.000000	 0.000000	 0.000000	 0.000000	 0.000000	 0.000000	 0.000000	 0.000000	 0.000000	 0.000000	 0.000000	 0.000000	 0.000000	 0.000000	 0.000000	 0.000000	 0.000000	 0.000000	 0.000000	 0.000000	 0.000000	 0.000000	 0.000000	 0.000000	 0.000000	-12.517250	-35.415730	 3.925429	 25.650360	 34.105460	-18.139690	-2.739402	 7.902771	-2.780050	 0.000000	 0.000000	 0.000000	-16.188840	-39.907180	-1.008601	 15.727300	 42.217780	-8.853811	-5.922159	-11.170880	-33.493990	 0.000000	 0.000000	 0.000000
-0.055589	 0.937712	 0.003978	-0.965703	-9.956524	 174.431800	 6.574170	 15.181100	-0.581873	 0.000000	 0.000000	 0.000000	 0.000000	 0.000000	 0.000000	-1.391219	 12.030670	-0.270300	-2.508092	 1.598175	 6.765445	 0.000000	 0.000000	 0.000000	 0.000000	 0.000000	 0.000000	 0.000000	 0.000000	 0.000000	-76.880060	-5.227845	 22.547960	-6.871536	 21.001040	-50.348880	-4.798262	 26.503090	-36.132850	 0.000000	 0.000000	 0.000000	 0.000000	 0.000000	 0.000000	 0.000000	 0.000000	 0.000000	 0.000000	 0.000000	 0.000000	 0.000000	 0.000000	 0.000000	 0.000000	 0.000000	 0.000000	 0.000000	 0.000000	 0.000000	 0.000000	 0.000000	 0.000000	 0.000000	 0.000000	 0.000000	 0.000000	 0.000000	 0.000000	 0.000000	 0.000000	 0.000000	 0.000000	 0.000000	 0.000000	 0.000000	 0.000000	 0.000000	 0.000000	 0.000000	 0.000000	 0.000000	 0.000000	 0.000000	 0.000000	 0.000000	 0.000000	 90.824490	-5.504807	 28.041640	 59.040130	 86.193630	-13.011150	-1.392209	 26.345190	 3.716593	 0.000000	 0.000000	 0.000000	 0.000000	 0.000000	 0.000000	 0.000000	 0.000000	 0.000000	 0.000000	 0.000000	 0.000000	 0.000000	 0.000000	 0.000000	 0.000000	 0.000000	 0.000000	 0.000000	 0.000000	 0.000000	 0.000000	 0.000000	 0.000000	 0.000000	 0.000000	 0.000000	 0.000000	 0.000000	 0.000000	 0.000000	 0.000000	 0.000000	 0.000000	 0.000000	 0.000000	 0.000000	 0.000000	 0.000000	 0.000000	 0.000000	 0.000000	 0.000000	 0.000000	 0.000000	-11.345890	-32.740530	 3.494311	 23.756200	 33.436730	-16.032610	-3.017116	 9.506837	 0.403355	 0.000000	 0.000000	 0.000000	-17.470230	-40.103520	-0.870378	 19.064300	 39.370320	-11.288360	-6.354926	-11.220820	-34.706950	 0.000000	 0.000000	 0.000000
